# xmcd CD database file
#
# Track frame offsets:
#	150
#	26444
#	61296
#	88828
#	97591
#	111971
#	145398
#	193220
#	199260
#	252465
#	290748
#	294482
#
# Disc length: 4413 seconds
#
# Revision: 0
# Processed by: cddbd v1.5.1PL2 Copyright (c) Steve Scherf et al.
# Submitted via: CDex 1.70beta1
#
DISCID=b9113b0c
DTITLE=Alex Skolnick Trio - Cafe Petit Campus, Montreal, Quebec 2004-08-21 CD 1
DYEAR=2004
DGENRE=Jazz
TTITLE0=Soundcheck Jam
TTITLE1=Soundcheck Jam
TTITLE2=Transformation
TTITLE3=Soundcheck Jam
TTITLE4=Giant Steps (John Coltrane)
TTITLE5=Transformation
TTITLE6=No One Like You (Scorpions)
TTITLE7=Alex Talking
TTITLE8=Detroit Rock City (Kiss)
TTITLE9=Fear Of Flying
TTITLE10=Alex Talking
TTITLE11=Goodbye To Romance (Ozzy Osbourne - Randy Rhoads)
EXTD=YEAR: 2004
EXTT0=
EXTT1=
EXTT2=
EXTT3=
EXTT4=
EXTT5=
EXTT6=
EXTT7=
EXTT8=
EXTT9=
EXTT10=
EXTT11=
PLAYORDER=
